#N canvas 732 52 450 680 10;
#X obj 12 21 r bpm;
#X obj 12 43 expr 60000 / $f1;
#X obj 110 110 / 12;
#X obj 15 153 metro;
#X obj 15 102 r arpnotes;
#X obj 15 185 f;
#X obj 46 185 + 1;
#X obj 15 207 mod;
#X obj 107 167 list length;
#X obj 15 286 list split;
#X obj 43 310 list split 1;
#X obj 15 258 list;
#X obj 15 229 t b f;
#X obj 43 336 mtof;
#X obj 43 381 *~;
#X obj 15 123 t b a a;
#X obj 107 189 t f f;
#X obj 134 212 > 0;
#N canvas 2 48 450 300 synth 0;
#X obj 9 9 inlet;
#X obj 11 275 outlet~;
#X obj 200 22 r waveform/idx;
#X obj 200 44 t f f;
#X obj 10 139 *~ 1;
#X obj 72 139 *~ 0;
#X obj 9 31 t f f;
#X obj 227 66 == 0;
#X obj 9 95 s_blsaw;
#X obj 71 95 s_blsquare;
#X msg 108 35 0.5;
#X obj 108 13 loadbang;
#X connect 0 0 6 0;
#X connect 2 0 3 0;
#X connect 3 0 4 1;
#X connect 3 1 7 0;
#X connect 4 0 1 0;
#X connect 5 0 1 0;
#X connect 6 0 8 0;
#X connect 6 1 9 0;
#X connect 7 0 5 1;
#X connect 8 0 4 0;
#X connect 9 0 5 0;
#X connect 10 0 9 1;
#X connect 11 0 10 0;
#X restore 43 358 pd synth;
#X obj 44 599 e_reverb rev1;
#X obj 119 542 loadbang;
#X obj 148 625 throw~ mainout-r;
#X obj 20 625 throw~ mainout-l;
#X msg 119 566 dry 0.5 \, wet 1 \, amp 80 \, hall 90 \, freq 8000 \,
damp 20;
#X obj 71 381 r arp-volume;
#X obj 43 403 *~;
#X obj 43 552 vcf~ 4;
#X obj 43 574 *~ 4;
#X obj 79 530 mtof;
#X obj 79 412 r arp-cutoff;
#X obj 79 434 unpack f f;
#X obj 79 486 * 127;
#X obj 79 508 int;
#X obj 79 456 sel -1;
#X obj 162 17 r arpfreq/idx;
#X obj 162 39 + 1;
#X obj 162 83 t b f;
#X obj 162 61 * 3;
#X connect 0 0 1 0;
#X connect 1 0 2 0;
#X connect 2 0 3 1;
#X connect 3 0 5 0;
#X connect 4 0 15 0;
#X connect 5 0 6 0;
#X connect 5 0 7 0;
#X connect 6 0 5 1;
#X connect 7 0 12 0;
#X connect 8 0 16 0;
#X connect 9 1 10 0;
#X connect 10 0 13 0;
#X connect 11 0 9 0;
#X connect 12 0 11 0;
#X connect 12 1 9 1;
#X connect 13 0 18 0;
#X connect 14 0 25 0;
#X connect 15 0 3 0;
#X connect 15 1 11 1;
#X connect 15 2 8 0;
#X connect 16 0 7 1;
#X connect 16 1 17 0;
#X connect 17 0 14 1;
#X connect 18 0 14 0;
#X connect 19 0 22 0;
#X connect 19 1 21 0;
#X connect 20 0 23 0;
#X connect 23 0 19 1;
#X connect 24 0 25 1;
#X connect 25 0 26 0;
#X connect 26 0 27 0;
#X connect 27 0 19 0;
#X connect 28 0 26 1;
#X connect 29 0 30 0;
#X connect 30 0 33 0;
#X connect 31 0 32 0;
#X connect 32 0 28 0;
#X connect 33 1 31 0;
#X connect 34 0 35 0;
#X connect 35 0 37 0;
#X connect 36 0 2 0;
#X connect 36 1 2 1;
#X connect 37 0 36 0;
