#N struct 1021template-marker float a float b;
#N struct 1022template-marker float a float b;
#N canvas 1340 85 314 210 10;
#N canvas 2 295 1916 618 main 1;
#X obj 1308 21 r pad;
#X obj 1308 43 unpack f f;
#X obj 1308 105 sel -1;
#X obj 1341 127 * 127;
#X obj 1365 105 sel -1;
#X obj 120 85 *~ 0;
#X obj 40 84 *~ 0;
#X obj 61 60 r mic-on;
#X obj 141 61 r line-on;
#X obj 1341 148 s fx-1;
#X obj 1398 171 s fx-2;
#X obj 1266 109 ==;
#X obj 1391 72 t f f;
#X obj 1418 94 == -1;
#X obj 1266 161 == 0;
#X obj 1266 183 s down;
#X obj 1266 137 &&;
#X obj 120 488 catch~ mainout;
#X obj 40 212 s~ core;
#X obj 33 12 soundinput;
#X obj 120 559 soundoutput;
#X obj 30 461 catch~ mainout-l;
#X obj 229 461 catch~ mainout-r;
#N canvas 825 221 450 438 delay 0;
#X obj 48 125 s-delayunit~ d;
#X obj 47 348 *~ 0;
#X obj 344 80 s d/length;
#X obj 274 142 s d/feedback;
#X obj 274 99 r fx-2;
#X obj 344 37 r fx-1;
#X obj 68 285 == 1;
#X obj 68 263 r fx-select/idx;
#X obj 344 59 int;
#X text 79 17 delay;
#X obj 48 370 throw~ mainout;
#X obj 48 46 r~ core;
#X obj 214 36 r down;
#X obj 48 89 *~ 0;
#X obj 84 348 switch~;
#X obj 271 66 s d/ms;
#X obj 271 41 r magic-ms;
#X obj 68 307 t f f;
#X obj 48 233 *~ 0;
#X obj 48 210 *~ 0.5;
#X obj 186 89 *~ 1;
#X obj 214 58 == 0;
#X obj 186 233 *~ 1;
#X connect 0 0 19 0;
#X connect 1 0 10 0;
#X connect 4 0 3 0;
#X connect 5 0 8 0;
#X connect 6 0 17 0;
#X connect 7 0 6 0;
#X connect 11 0 13 0;
#X connect 11 0 20 0;
#X connect 12 0 13 1;
#X connect 12 0 18 1;
#X connect 12 0 21 0;
#X connect 13 0 0 0;
#X connect 16 0 15 0;
#X connect 17 0 14 0;
#X connect 17 1 1 1;
#X connect 18 0 1 0;
#X connect 19 0 18 0;
#X connect 20 0 22 0;
#X connect 21 0 20 1;
#X connect 21 0 22 1;
#X connect 22 0 1 0;
#X restore 127 307 pd delay;
#N canvas 110 101 450 573 filter 0;
#X obj 52 230 mtof;
#X obj 42 266 vcf~;
#X obj 120 222 * 5;
#X obj 43 287 *~;
#X obj 42 431 *~ 1;
#X obj 52 176 r fx-1;
#X obj 120 178 r fx-2;
#X obj 162 390 == 0;
#X obj 120 200 / 127;
#X obj 52 198 int;
#X obj 162 365 r fx-select/idx;
#X obj 259 416 tgl 15 0 empty empty empty 17 7 0 10 -262144 -1 -1 1
1;
#X text 65 29 filter;
#X obj 43 454 throw~ mainout;
#X obj 42 66 r~ core;
#X obj 162 413 switch~;
#X obj 208 99 r down;
#X obj 42 152 *~ 0;
#X obj 42 326 *~ 0;
#X obj 180 152 *~ 1;
#X obj 208 121 == 0;
#X obj 180 326 *~ 1;
#X connect 0 0 1 1;
#X connect 1 0 3 0;
#X connect 2 0 1 2;
#X connect 2 0 3 1;
#X connect 3 0 18 0;
#X connect 4 0 13 0;
#X connect 5 0 9 0;
#X connect 6 0 8 0;
#X connect 7 0 4 1;
#X connect 7 0 11 0;
#X connect 7 0 15 0;
#X connect 8 0 2 0;
#X connect 9 0 0 0;
#X connect 10 0 7 0;
#X connect 14 0 17 0;
#X connect 14 0 19 0;
#X connect 16 0 17 1;
#X connect 16 0 18 1;
#X connect 16 0 20 0;
#X connect 17 0 1 0;
#X connect 18 0 4 0;
#X connect 19 0 21 0;
#X connect 20 0 19 1;
#X connect 20 0 21 1;
#X connect 21 0 4 0;
#X restore 50 306 pd filter;
#N canvas 569 344 747 697 catcher 0;
#X obj 74 519 *~ 0;
#X obj 95 444 r fx-select/idx;
#X obj 95 466 == 2;
#X obj 72 252 phasor~;
#X obj 73 314 tabread4~ snippet;
#X obj 72 290 *~;
#X obj 179 226 samplerate~;
#X msg 179 204 bang;
#X obj 179 182 loadbang;
#X obj 72 87 r fx-1;
#X obj 72 129 int;
#X obj 72 151 mtof;
#X obj 91 226 expr 1 / $f1;
#X obj 164 258 *;
#X text 17 104 catcher;
#X obj 401 140 r fx-2;
#X obj 211 258 phasor~;
#X obj 72 202 t f f f;
#X obj 74 541 throw~ mainout;
#X obj 72 107 - 12;
#X obj 73 381 *~;
#X floatatom 375 257 5 0 0 0 - - -, f 5;
#X obj 211 287 expr~ max(0 \, (1 - $v1) * (1 - $v2) + $v2);
#X obj 401 162 * 5;
#X obj 401 192 - 550;
#X obj 401 221 / 85;
#X obj 114 518 switch~;
#X obj 94 401 r down;
#X obj 73 424 *~ 0;
#X obj 95 488 t f f;
#X obj 25 173 r magic-freq;
#X obj 213 332 *~ 1;
#X obj 233 308 r down;
#X connect 0 0 18 0;
#X connect 1 0 2 0;
#X connect 2 0 29 0;
#X connect 3 0 5 0;
#X connect 4 0 20 0;
#X connect 5 0 4 0;
#X connect 6 0 13 1;
#X connect 7 0 6 0;
#X connect 8 0 7 0;
#X connect 9 0 19 0;
#X connect 10 0 11 0;
#X connect 12 0 13 0;
#X connect 13 0 5 1;
#X connect 15 0 23 0;
#X connect 16 0 22 0;
#X connect 17 0 3 0;
#X connect 17 1 12 0;
#X connect 17 2 16 0;
#X connect 19 0 10 0;
#X connect 20 0 28 0;
#X connect 22 0 31 0;
#X connect 23 0 24 0;
#X connect 24 0 25 0;
#X connect 25 0 21 0;
#X connect 25 0 22 1;
#X connect 27 0 28 1;
#X connect 28 0 0 0;
#X connect 29 0 26 0;
#X connect 29 1 0 1;
#X connect 30 0 17 0;
#X connect 31 0 20 1;
#X connect 32 0 31 1;
#X restore 195 308 pd catcher;
#N canvas 2 50 450 635 ringmod 0;
#X obj 64 214 *~;
#X obj 79 192 osc~;
#X obj 172 342 *~ 0;
#X obj 193 297 r fx-select/idx;
#X obj 234 341 tgl 15 0 empty empty empty 17 7 0 10 -262144 -1 -1 0
1;
#X obj 193 319 == 3;
#X text 80 81 ringmod;
#X obj 173 404 throw~ mainout;
#X obj 63 101 r~ core;
#X obj 79 125 r fx-1;
#X obj 79 148 int;
#X obj 79 170 mtof;
#X obj 138 110 r fx-2;
#X obj 138 132 / 127;
#X obj 188 209 *~;
#X obj 187 96 r~ core;
#X obj 203 120 r fx-1;
#X obj 203 143 int;
#X obj 203 165 mtof;
#X obj 203 187 phasor~;
#X obj 138 154 t f f;
#X obj 202 239 expr 1 - $f1;
#X obj 187 263 *~;
#X obj 64 247 *~;
#X obj 216 372 switch~;
#X connect 0 0 23 0;
#X connect 1 0 0 1;
#X connect 2 0 7 0;
#X connect 3 0 5 0;
#X connect 5 0 2 1;
#X connect 5 0 4 0;
#X connect 5 0 24 0;
#X connect 8 0 0 0;
#X connect 9 0 10 0;
#X connect 10 0 11 0;
#X connect 11 0 1 0;
#X connect 12 0 13 0;
#X connect 13 0 20 0;
#X connect 14 0 22 0;
#X connect 15 0 14 0;
#X connect 16 0 17 0;
#X connect 17 0 18 0;
#X connect 18 0 19 0;
#X connect 19 0 14 1;
#X connect 20 0 23 1;
#X connect 20 1 21 0;
#X connect 21 0 22 1;
#X connect 22 0 2 0;
#X connect 23 0 2 0;
#X restore 270 308 pd ringmod;
#N canvas 279 1128 641 854 reverb 0;
#X obj 156 125 r fx-1;
#X obj 81 477 *~ 0;
#X obj 128 359 r fx-select/idx;
#X obj 128 381 == 4;
#X obj 210 504 *~ 0;
#X text 102 90 reverb;
#X obj 121 477 switch~;
#X obj 80 120 r~ core;
#X obj 232 119 r fx-2;
#X obj 232 141 int;
#X obj 232 163 mtof;
#X msg 156 147 hall \$1;
#X msg 232 185 freq \$1;
#X obj 81 291 e_reverb rev1;
#X obj 169 250 r \$0-CTL;
#X obj 319 144 s \$0-GUI;
#X obj 319 102 loadbang;
#X msg 319 123 dry 0 \, amp 80 \, hall 80 \, freq 6000 \, damp 50;
#X obj 128 403 t f f f;
#X obj 210 525 throw~ mainout-r;
#X obj 82 525 throw~ mainout-l;
#X obj 81 313 hip~ 1;
#X obj 155 312 hip~ 1;
#X obj 81 333 *~ 8;
#X obj 155 333 *~ 8;
#X obj 80 141 *~ 0.1;
#X connect 0 0 11 0;
#X connect 1 0 20 0;
#X connect 2 0 3 0;
#X connect 3 0 18 0;
#X connect 4 0 19 0;
#X connect 7 0 25 0;
#X connect 8 0 9 0;
#X connect 9 0 10 0;
#X connect 10 0 12 0;
#X connect 11 0 13 1;
#X connect 12 0 13 1;
#X connect 13 0 21 0;
#X connect 13 1 22 0;
#X connect 14 0 13 1;
#X connect 16 0 17 0;
#X connect 17 0 15 0;
#X connect 18 0 6 0;
#X connect 18 1 1 1;
#X connect 18 2 4 1;
#X connect 21 0 23 0;
#X connect 22 0 24 0;
#X connect 23 0 1 0;
#X connect 24 0 4 0;
#X connect 25 0 13 0;
#X restore 350 308 pd reverb;
#X obj 607 20 r #osc-in;
#X obj 607 64 s tick;
#X obj 120 107 *~ 0.5;
#X obj 660 64 s bpm/r;
#X obj 713 64 s goodnotes;
#X obj 607 41 route /tick /bpm /goodnotes;
#X obj 995 151 u_magic-freq;
#X obj 1017 49 r goodnotes;
#X obj 1017 71 list prepend notes;
#X obj 1017 93 list trim;
#X obj 892 87 list trim;
#X obj 892 43 r bpm/r;
#X obj 892 66 list prepend bpm;
#X obj 995 6 r fx-1;
#X obj 1085 173 s magic-ms;
#X obj 995 173 s magic-freq;
#X msg 1164 92 octave \$1;
#X obj 1164 70 r octave;
#X obj 995 28 int;
#X obj 278 10 loadbang;
#X obj 276 485 noise~;
#X obj 276 507 *~ 0.01;
#X obj 1194 15 loadbang;
#X msg 1194 37 -3;
#X obj 396 63 s tick;
#X obj 396 19 netreceive -u 4444;
#X obj 396 41 route /tick /bpm /goodnotes;
#X obj 449 63 s bpm/r;
#X obj 502 63 s goodnotes;
#X obj 40 106 hip~ 1;
#N canvas 226 1128 450 300 timer 0;
#X obj 9 12 r bpm/r;
#X restore 205 9 pd timer;
#X msg 278 32 \; bpm/r 180 \; mic-on/r 1 \; timer-start bang \;;
#X obj 1256 543 tabwrite~ snippet;
#X obj 1275 492 sel 1;
#X obj 1256 563 table snippet 88200;
#X text 1252 397 snatch the sound when finger down;
#X obj 1079 300 unpack f f;
#X obj 1079 362 sel -1;
#X obj 1136 362 sel -1;
#X obj 1037 366 ==;
#X obj 1162 329 t f f;
#X obj 1189 351 == -1;
#X obj 1037 418 == 0;
#X obj 1037 394 &&;
#X obj 1079 278 r snatch;
#X obj 1004 540 s snatch-down;
#X obj 1275 448 r snatch-down;
#X obj 1112 384 * 4;
#X obj 1112 585 s snatch-pos;
#X obj 1112 540 + 178;
#X obj 1112 517 * 32;
#X obj 1112 406 int;
#X msg 1112 562 pos \$1 40;
#N canvas 604 181 450 408 play-snippet 0;
#X obj 181 299 tabplay~ snippet;
#X obj 308 31 r bpm;
#X obj 20 374 outlet~;
#X obj 20 27 inlet~;
#X obj 42 270 == 0;
#X obj 21 294 *~ 1;
#X obj 181 13 r snatch-down;
#X obj 181 346 *~ 0;
#X obj 202 322 r snatch-down;
#X obj 338 75 r snatch-val;
#X obj 181 129 f;
#X obj 208 129 + 1;
#X obj 308 75 / 4;
#X obj 181 151 / 1;
#X obj 338 97 + 1;
#X obj 181 173 int;
#X obj 181 195 change;
#X obj 181 35 t f f;
#X obj 208 56 sel 0;
#X obj 208 78 0;
#X obj 181 107 metro 500;
#X msg 181 277 bang;
#X obj 308 53 expr 60000 / $f1;
#X obj 181 246 sel 0;
#X obj 181 217 t f f;
#X connect 0 0 7 0;
#X connect 1 0 22 0;
#X connect 3 0 5 0;
#X connect 4 0 5 1;
#X connect 5 0 2 0;
#X connect 6 0 17 0;
#X connect 7 0 2 0;
#X connect 8 0 7 1;
#X connect 9 0 14 0;
#X connect 10 0 11 0;
#X connect 10 0 13 0;
#X connect 11 0 10 1;
#X connect 12 0 20 1;
#X connect 13 0 15 0;
#X connect 14 0 13 1;
#X connect 15 0 16 0;
#X connect 16 0 24 0;
#X connect 17 0 20 0;
#X connect 17 1 18 0;
#X connect 18 0 19 0;
#X connect 19 0 10 0;
#X connect 20 0 10 0;
#X connect 21 0 0 0;
#X connect 22 0 12 0;
#X connect 23 1 21 0;
#X connect 24 0 4 0;
#X connect 24 1 23 0;
#X restore 40 177 pd play-snippet;
#X obj 58 135 s~ pre;
#X obj 1255 418 r~ pre;
#X obj 1398 127 * 64;
#X obj 1398 149 + 63;
#X obj 1037 440 change;
#X obj 1112 450 change;
#X obj 1139 494 s snatch-val;
#X obj 1112 472 t f f;
#X obj 1112 428 clip 0 3;
#X obj 1037 462 t f f;
#X obj 969 511 s snatch-down-pre;
#X connect 0 0 1 0;
#X connect 1 0 2 0;
#X connect 1 0 11 0;
#X connect 1 1 4 0;
#X connect 1 1 12 0;
#X connect 2 1 3 0;
#X connect 3 0 9 0;
#X connect 4 1 84 0;
#X connect 5 0 30 0;
#X connect 6 0 57 0;
#X connect 7 0 6 1;
#X connect 8 0 5 1;
#X connect 11 0 16 0;
#X connect 12 0 11 1;
#X connect 12 1 13 0;
#X connect 13 0 16 1;
#X connect 14 0 15 0;
#X connect 16 0 14 0;
#X connect 17 0 20 0;
#X connect 17 0 20 1;
#X connect 19 0 6 0;
#X connect 19 1 5 0;
#X connect 21 0 20 0;
#X connect 22 0 20 1;
#X connect 28 0 33 0;
#X connect 33 0 29 0;
#X connect 33 1 31 0;
#X connect 33 2 32 0;
#X connect 34 0 43 0;
#X connect 34 1 42 0;
#X connect 35 0 36 0;
#X connect 36 0 37 0;
#X connect 37 0 34 0;
#X connect 38 0 34 0;
#X connect 39 0 40 0;
#X connect 40 0 38 0;
#X connect 41 0 46 0;
#X connect 44 0 34 0;
#X connect 45 0 44 0;
#X connect 46 0 34 0;
#X connect 47 0 59 0;
#X connect 48 0 49 0;
#X connect 49 0 20 1;
#X connect 49 0 20 0;
#X connect 50 0 51 0;
#X connect 51 0 34 0;
#X connect 53 0 54 0;
#X connect 54 0 52 0;
#X connect 54 1 55 0;
#X connect 54 2 56 0;
#X connect 57 0 81 0;
#X connect 57 0 82 0;
#X connect 61 0 60 0;
#X connect 64 0 65 0;
#X connect 64 0 67 0;
#X connect 64 1 66 0;
#X connect 64 1 68 0;
#X connect 65 1 75 0;
#X connect 67 0 71 0;
#X connect 68 0 67 1;
#X connect 68 1 69 0;
#X connect 69 0 71 1;
#X connect 70 0 86 0;
#X connect 71 0 70 0;
#X connect 72 0 64 0;
#X connect 74 0 61 0;
#X connect 75 0 79 0;
#X connect 77 0 80 0;
#X connect 78 0 77 0;
#X connect 79 0 90 0;
#X connect 80 0 76 0;
#X connect 81 0 18 0;
#X connect 83 0 60 0;
#X connect 84 0 85 0;
#X connect 85 0 10 0;
#X connect 86 0 91 0;
#X connect 87 0 89 0;
#X connect 89 0 78 0;
#X connect 89 1 88 0;
#X connect 90 0 87 0;
#X connect 91 0 73 0;
#X connect 91 1 92 0;
#X restore 11 169 pd main;
#X obj 264 140 tgl 32 0 mic-on mic-on/r mic 8 -8 0 10 -262144 -1 -1
1 1;
#X obj 174 6 taplist 128 32 fx-select-r fx-select filter delay catcher
ringmod reverb;
#N canvas 116 108 450 300 crap 0;
#X obj 183 6 tgl 32 0 line-on empty empty 17 7 0 10 -262144 -1 -1 0
1;
#X obj 16 91 hsl 128 64 0 127 0 0 fx-2 empty empty -2 -8 0 10 -262144
-1 -1 0 1;
#X obj 16 11 hsl 128 64 0 127 0 0 fx-1 empty empty -2 -8 0 10 -262144
-1 -1 0 1;
#X obj 240 45 numberbox 64 32 octave/r octave -2 3 0;
#X obj 264 97 tgl 32 0 empty down down 0 -8 0 10 -262144 -1 -1 0 1
;
#X floatatom 195 108 8 0 0 2 magic magic-ms -, f 8;
#X restore 63 169 pd crap;
#X obj 190 140 numberbox 64 32 bpm/r bpm 30 300 180;
#X obj 180 39 cnv 15 24 24 empty snatch-pos empty 20 12 0 14 -1 -66577
0;
#X obj 174 46 touch 128 32 snatch;
#X obj 7 5 touch 160 72 pad;
#X text 173 80 snatch 1;
