#N struct 1039template-marker float a float b;
#N struct 1040template-marker float a float b;
#N struct 1041template-marker float a float b;
#N struct 1044template-marker float a float b;
#N canvas 947 102 316 210 10;
#N canvas 111 88 919 618 main 1;
#X obj 731 54 r pad;
#X obj 731 76 unpack f f;
#X obj 731 138 sel -1;
#X obj 764 160 * 127;
#X obj 788 138 sel -1;
#X obj 120 85 *~ 0;
#X obj 40 84 *~ 0;
#X obj 61 60 r mic-on;
#X obj 141 61 r line-on;
#X obj 764 181 s fx-1;
#X obj 821 204 s fx-2;
#X obj 689 142 ==;
#X obj 814 105 t f f;
#X obj 841 127 == -1;
#X obj 689 194 == 0;
#X obj 689 216 s down;
#X obj 689 170 &&;
#X obj 120 438 catch~ mainout;
#X obj 40 242 s~ core;
#X obj 33 12 soundinput;
#X obj 120 559 soundoutput;
#X obj 30 411 catch~ mainout-l;
#X obj 229 411 catch~ mainout-r;
#N canvas 816 176 450 438 delay 1;
#X obj 48 125 s-delayunit~ d;
#X obj 47 378 *~ 0;
#X obj 344 80 s d/length;
#X obj 274 142 s d/feedback;
#X obj 274 99 r fx-2;
#X obj 344 37 r fx-1;
#X obj 68 315 == 1;
#X obj 68 293 r fx-select/idx;
#X obj 344 59 int;
#X text 79 17 delay;
#X obj 48 400 throw~ mainout;
#X obj 48 46 r~ core;
#X obj 214 36 r down;
#X obj 48 89 *~ 0;
#X obj 84 378 switch~;
#X obj 271 66 s d/ms;
#X obj 271 41 r magic-ms;
#X obj 68 337 t f f;
#X obj 48 233 *~ 0;
#X obj 186 89 *~ 1;
#X obj 214 58 == 0;
#X obj 186 233 *~ 1;
#X obj 48 265 s-tanh~;
#X obj 48 210 *~ 1;
#X connect 0 0 23 0;
#X connect 1 0 10 0;
#X connect 4 0 3 0;
#X connect 5 0 8 0;
#X connect 6 0 17 0;
#X connect 7 0 6 0;
#X connect 11 0 13 0;
#X connect 11 0 19 0;
#X connect 12 0 13 1;
#X connect 12 0 18 1;
#X connect 12 0 20 0;
#X connect 13 0 0 0;
#X connect 16 0 15 0;
#X connect 17 0 14 0;
#X connect 17 1 1 1;
#X connect 18 0 22 0;
#X connect 19 0 21 0;
#X connect 20 0 19 1;
#X connect 20 0 21 1;
#X connect 21 0 1 0;
#X connect 22 0 1 0;
#X connect 23 0 18 0;
#X restore 127 308 pd delay;
#N canvas 104 71 450 573 filter 0;
#X obj 52 230 mtof;
#X obj 42 266 vcf~;
#X obj 120 222 * 5;
#X obj 43 287 *~;
#X obj 42 431 *~ 1;
#X obj 52 176 r fx-1;
#X obj 120 178 r fx-2;
#X obj 162 390 == 0;
#X obj 120 200 / 127;
#X obj 52 198 int;
#X obj 162 365 r fx-select/idx;
#X obj 259 416 tgl 15 0 empty empty empty 17 7 0 10 -262144 -1 -1 1
1;
#X text 65 29 filter;
#X obj 43 454 throw~ mainout;
#X obj 42 66 r~ core;
#X obj 162 413 switch~;
#X obj 208 99 r down;
#X obj 42 152 *~ 0;
#X obj 42 326 *~ 0;
#X obj 180 152 *~ 1;
#X obj 208 121 == 0;
#X obj 180 326 *~ 1;
#X connect 0 0 1 1;
#X connect 1 0 3 0;
#X connect 2 0 1 2;
#X connect 2 0 3 1;
#X connect 3 0 18 0;
#X connect 4 0 13 0;
#X connect 5 0 9 0;
#X connect 6 0 8 0;
#X connect 7 0 4 1;
#X connect 7 0 11 0;
#X connect 7 0 15 0;
#X connect 8 0 2 0;
#X connect 9 0 0 0;
#X connect 10 0 7 0;
#X connect 14 0 17 0;
#X connect 14 0 19 0;
#X connect 16 0 17 1;
#X connect 16 0 18 1;
#X connect 16 0 20 0;
#X connect 17 0 1 0;
#X connect 18 0 4 0;
#X connect 19 0 21 0;
#X connect 20 0 19 1;
#X connect 20 0 21 1;
#X connect 21 0 4 0;
#X restore 50 308 pd filter;
#N canvas 603 107 761 635 ringmod 0;
#X obj 64 214 *~;
#X obj 79 192 osc~;
#X obj 65 491 *~ 0;
#X obj 86 446 r fx-select/idx;
#X obj 127 490 tgl 15 0 empty empty empty 17 7 0 10 -262144 -1 -1 0
1;
#X obj 86 468 == 3;
#X text 80 7 ringmod;
#X obj 66 553 throw~ mainout;
#X obj 63 27 r~ core;
#X obj 79 125 r fx-1;
#X obj 79 148 int;
#X obj 79 170 mtof;
#X obj 138 110 r fx-2;
#X obj 138 132 / 127;
#X obj 188 209 *~;
#X obj 203 120 r fx-1;
#X obj 203 143 int;
#X obj 203 165 mtof;
#X obj 203 187 phasor~;
#X obj 138 154 t f f;
#X obj 202 239 expr 1 - $f1;
#X obj 187 263 *~;
#X obj 64 247 *~;
#X obj 109 521 switch~;
#X obj 459 47 r down;
#X obj 64 96 *~ 0;
#X obj 411 110 *~ 1;
#X obj 459 69 == 0;
#X obj 411 284 *~ 1;
#X obj 64 358 *~ 0;
#X connect 0 0 22 0;
#X connect 1 0 0 1;
#X connect 2 0 7 0;
#X connect 3 0 5 0;
#X connect 5 0 2 1;
#X connect 5 0 4 0;
#X connect 5 0 23 0;
#X connect 8 0 25 0;
#X connect 8 0 26 0;
#X connect 9 0 10 0;
#X connect 10 0 11 0;
#X connect 11 0 1 0;
#X connect 12 0 13 0;
#X connect 13 0 19 0;
#X connect 14 0 21 0;
#X connect 15 0 16 0;
#X connect 16 0 17 0;
#X connect 17 0 18 0;
#X connect 18 0 14 1;
#X connect 19 0 22 1;
#X connect 19 1 20 0;
#X connect 20 0 21 1;
#X connect 21 0 29 0;
#X connect 22 0 29 0;
#X connect 24 0 25 1;
#X connect 24 0 27 0;
#X connect 24 0 29 1;
#X connect 25 0 0 0;
#X connect 25 0 14 0;
#X connect 26 0 28 0;
#X connect 27 0 26 1;
#X connect 27 0 28 1;
#X connect 28 0 2 0;
#X connect 29 0 2 0;
#X restore 270 308 pd ringmod;
#N canvas 271 62 641 680 reverb 0;
#X obj 156 125 r fx-1;
#X obj 81 517 *~ 0;
#X obj 128 399 r fx-select/idx;
#X obj 128 421 == 4;
#X obj 210 544 *~ 0;
#X text 102 90 reverb;
#X obj 121 517 switch~;
#X obj 80 120 r~ core;
#X obj 232 119 r fx-2;
#X obj 232 141 int;
#X obj 232 163 mtof;
#X msg 156 147 hall \$1;
#X msg 232 185 freq \$1;
#X obj 81 291 e_reverb rev1;
#X obj 169 250 r \$0-CTL;
#X obj 319 144 s \$0-GUI;
#X obj 319 102 loadbang;
#X msg 319 123 dry 0 \, amp 80 \, hall 80 \, freq 6000 \, damp 50;
#X obj 128 443 t f f f;
#X obj 210 565 throw~ mainout-r;
#X obj 82 565 throw~ mainout-l;
#X obj 81 313 hip~ 1;
#X obj 155 312 hip~ 1;
#X obj 80 141 *~ 0.1;
#X obj 155 334 *~ 8;
#X obj 81 335 *~ 8;
#X connect 0 0 11 0;
#X connect 1 0 20 0;
#X connect 2 0 3 0;
#X connect 3 0 18 0;
#X connect 4 0 19 0;
#X connect 7 0 23 0;
#X connect 8 0 9 0;
#X connect 9 0 10 0;
#X connect 10 0 12 0;
#X connect 11 0 13 1;
#X connect 12 0 13 1;
#X connect 13 0 21 0;
#X connect 13 1 22 0;
#X connect 14 0 13 1;
#X connect 16 0 17 0;
#X connect 17 0 15 0;
#X connect 18 0 6 0;
#X connect 18 1 1 1;
#X connect 18 2 4 1;
#X connect 21 0 25 0;
#X connect 22 0 24 0;
#X connect 23 0 13 0;
#X connect 24 0 4 0;
#X connect 25 0 1 0;
#X restore 350 308 pd reverb;
#X obj 120 107 *~ 0.5;
#X obj 216 16 loadbang;
#X obj 276 435 noise~;
#X obj 40 106 hip~ 1;
#X obj 712 533 tabwrite~ snippet;
#X obj 731 482 sel 1;
#X obj 712 553 table snippet 88200;
#X text 708 387 snatch the sound when finger down;
#X obj 731 438 r snatch-down;
#N canvas 599 156 450 448 play-snippet 0;
#X obj 111 327 tabplay~ snippet;
#X obj 208 31 r bpm;
#X obj 20 414 outlet~;
#X obj 20 7 inlet~;
#X obj 42 270 == 0;
#X obj 21 294 *~ 1;
#X obj 111 13 r snatch-down;
#X obj 111 374 *~ 0;
#X obj 132 350 r snatch-down;
#X obj 238 75 r snatch-val;
#X obj 111 157 f;
#X obj 138 157 + 1;
#X obj 208 75 / 4;
#X obj 111 179 / 1;
#X obj 238 97 + 1;
#X obj 111 201 int;
#X obj 111 223 change;
#X obj 111 35 t f f;
#X obj 138 56 sel 0;
#X obj 138 78 0;
#X obj 111 135 metro 500;
#X msg 111 305 bang;
#X obj 208 53 expr 60000 / $f1;
#X obj 111 274 sel 0;
#X obj 111 245 t f f;
#X obj 138 100 t f f;
#X connect 0 0 7 0;
#X connect 1 0 22 0;
#X connect 3 0 5 0;
#X connect 4 0 5 1;
#X connect 5 0 2 0;
#X connect 6 0 17 0;
#X connect 7 0 2 0;
#X connect 8 0 7 1;
#X connect 9 0 14 0;
#X connect 10 0 11 0;
#X connect 10 0 13 0;
#X connect 11 0 10 1;
#X connect 12 0 20 1;
#X connect 13 0 15 0;
#X connect 14 0 13 1;
#X connect 15 0 16 0;
#X connect 16 0 24 0;
#X connect 17 0 20 0;
#X connect 17 1 18 0;
#X connect 18 0 19 0;
#X connect 19 0 25 0;
#X connect 20 0 10 0;
#X connect 21 0 0 0;
#X connect 22 0 12 0;
#X connect 23 1 21 0;
#X connect 24 0 4 0;
#X connect 24 1 23 0;
#X connect 25 0 4 0;
#X connect 25 1 10 1;
#X restore 40 207 pd play-snippet;
#X obj 58 185 s~ pre;
#X obj 711 408 r~ pre;
#X obj 821 160 * 64;
#X obj 821 182 + 63;
#N canvas 562 52 659 628 bitcrush 0;
#X obj 326 181 r fx-1;
#X obj 326 226 r fx-2;
#X obj 50 216 s-bitcrusher~ one;
#X obj 50 278 s-fuzz~ two;
#X obj 326 248 s one/bits;
#X obj 326 203 s two/fuxx;
#X obj 49 428 *~ 1;
#X obj 169 362 r fx-select/idx;
#X obj 226 413 tgl 15 0 empty empty empty 17 7 0 10 -262144 -1 -1 0
1;
#X obj 50 451 throw~ mainout;
#X obj 49 63 r~ core;
#X obj 169 420 switch~;
#X obj 235 86 r down;
#X obj 49 149 *~ 0;
#X obj 187 149 *~ 1;
#X obj 235 108 == 0;
#X obj 187 323 *~ 1;
#X obj 169 387 == 2;
#X obj 50 358 *~ 0;
#X connect 0 0 5 0;
#X connect 1 0 4 0;
#X connect 2 0 3 0;
#X connect 3 0 18 0;
#X connect 6 0 9 0;
#X connect 7 0 17 0;
#X connect 10 0 13 0;
#X connect 10 0 14 0;
#X connect 12 0 13 1;
#X connect 12 0 15 0;
#X connect 12 0 18 1;
#X connect 13 0 2 0;
#X connect 14 0 16 0;
#X connect 15 0 14 1;
#X connect 15 0 16 1;
#X connect 16 0 6 0;
#X connect 17 0 6 1;
#X connect 17 0 8 0;
#X connect 17 0 11 0;
#X connect 18 0 6 0;
#X restore 195 308 pd bitcrush;
#N canvas 785 438 450 378 clipper 0;
#X obj 14 12 inlet~;
#X obj 14 345 outlet~;
#X obj 28 292 vline~;
#X msg 28 198 1;
#X obj 28 126 loadbang;
#X obj 126 32 r clip-val;
#X obj 193 9 r bpm;
#X obj 193 31 expr 60000 / $f1;
#X obj 111 246 f;
#X obj 126 97 *;
#X obj 13 318 *~;
#X obj 111 119 bonk~;
#X obj 111 220 spigot 0;
#X msg 111 267 1 \, 0 3 \$1;
#X obj 176 97 r clip-down;
#X obj 37 172 sel 0;
#X obj 176 119 t f f;
#X obj 193 53 / 4;
#X obj 111 141 t b b b;
#X obj 193 166 delay;
#X obj 193 75 t f f;
#X obj 220 140 / 4;
#X msg 193 188 1;
#X obj 130 192 spigot 1;
#X msg 111 163 0;
#X connect 0 0 10 0;
#X connect 0 0 11 0;
#X connect 2 0 10 1;
#X connect 3 0 2 0;
#X connect 4 0 3 0;
#X connect 5 0 9 0;
#X connect 6 0 7 0;
#X connect 7 0 17 0;
#X connect 8 0 13 0;
#X connect 9 0 8 1;
#X connect 10 0 1 0;
#X connect 11 0 18 0;
#X connect 12 0 8 0;
#X connect 13 0 2 0;
#X connect 14 0 16 0;
#X connect 15 0 3 0;
#X connect 16 0 15 0;
#X connect 16 1 12 1;
#X connect 17 0 20 0;
#X connect 18 0 24 0;
#X connect 18 1 23 0;
#X connect 18 2 19 0;
#X connect 19 0 22 0;
#X connect 20 0 9 1;
#X connect 20 1 21 0;
#X connect 21 0 19 1;
#X connect 22 0 23 1;
#X connect 23 0 12 0;
#X connect 24 0 23 1;
#X restore 40 158 pd clipper;
#N canvas 558 1341 347 379 snatch-event-handler 0;
#X obj 126 37 unpack f f;
#X obj 153 99 sel -1;
#X obj 13 112 ==;
#X obj 209 66 t f f;
#X obj 236 88 == -1;
#X obj 13 164 == 0;
#X obj 13 140 &&;
#X obj 126 15 r snatch;
#X obj 13 332 s snatch-down;
#X obj 186 121 * 4;
#X obj 186 322 s snatch-pos;
#X obj 186 277 + 178;
#X obj 186 254 * 32;
#X obj 186 143 int;
#X msg 186 299 pos \$1 40;
#X obj 13 186 change;
#X obj 213 231 s snatch-val;
#X obj 186 189 t f f;
#X obj 186 165 clip 0 3;
#X obj 32 309 s snatch-down-pre;
#X msg 52 252 pos -100 -100;
#X obj 126 59 t f f;
#X obj 13 208 t f f f;
#X obj 52 230 sel 0;
#X obj 213 210 change;
#X connect 0 0 21 0;
#X connect 0 1 3 0;
#X connect 1 1 9 0;
#X connect 2 0 6 0;
#X connect 3 0 2 1;
#X connect 3 1 4 0;
#X connect 4 0 6 1;
#X connect 5 0 15 0;
#X connect 6 0 5 0;
#X connect 7 0 0 0;
#X connect 9 0 13 0;
#X connect 11 0 14 0;
#X connect 12 0 11 0;
#X connect 13 0 18 0;
#X connect 14 0 10 0;
#X connect 15 0 22 0;
#X connect 17 0 12 0;
#X connect 17 1 24 0;
#X connect 18 0 17 0;
#X connect 20 0 10 0;
#X connect 21 0 2 0;
#X connect 21 1 1 0;
#X connect 22 0 8 0;
#X connect 22 1 19 0;
#X connect 22 2 23 0;
#X connect 23 0 20 0;
#X connect 24 0 16 0;
#X restore 711 361 pd snatch-event-handler;
#N canvas 2 48 462 262 magic-freqency-converter 0;
#X obj 138 162 u_magic-freq;
#X obj 160 60 r goodnotes;
#X obj 160 82 list prepend notes;
#X obj 160 104 list trim;
#X obj 35 98 list trim;
#X obj 35 54 r bpm/r;
#X obj 35 77 list prepend bpm;
#X obj 138 17 r fx-1;
#X obj 228 184 s magic-ms;
#X obj 138 184 s magic-freq;
#X msg 307 103 octave \$1;
#X obj 307 81 r octave;
#X obj 138 39 int;
#X obj 307 26 loadbang;
#X msg 307 48 -3;
#X connect 0 0 9 0;
#X connect 0 1 8 0;
#X connect 1 0 2 0;
#X connect 2 0 3 0;
#X connect 3 0 0 0;
#X connect 4 0 0 0;
#X connect 5 0 6 0;
#X connect 6 0 4 0;
#X connect 7 0 12 0;
#X connect 10 0 0 0;
#X connect 11 0 10 0;
#X connect 12 0 0 0;
#X connect 13 0 14 0;
#X connect 14 0 0 0;
#X restore 415 122 pd magic-freqency-converter;
#X text 713 22 xy pad -> fx handler;
#N canvas 922 1336 347 379 clip-event-handler 0;
#X obj 126 37 unpack f f;
#X obj 153 99 sel -1;
#X obj 13 112 ==;
#X obj 209 66 t f f;
#X obj 236 88 == -1;
#X obj 13 164 == 0;
#X obj 13 140 &&;
#X obj 186 277 + 178;
#X obj 13 186 change;
#X obj 186 209 t f f;
#X msg 40 250 pos -100 -100;
#X obj 186 185 clip 0 1;
#X obj 213 231 s clip-val;
#X obj 186 322 s clip-pos;
#X obj 186 254 * 96;
#X msg 186 299 pos \$1 96;
#X obj 13 322 s clip-down;
#X obj 126 15 r clip;
#X obj 126 59 t f f;
#X obj 13 208 t f f;
#X obj 40 228 sel 0;
#X connect 0 0 18 0;
#X connect 0 1 3 0;
#X connect 1 1 11 0;
#X connect 2 0 6 0;
#X connect 3 0 2 1;
#X connect 3 1 4 0;
#X connect 4 0 6 1;
#X connect 5 0 8 0;
#X connect 6 0 5 0;
#X connect 7 0 15 0;
#X connect 8 0 19 0;
#X connect 9 0 14 0;
#X connect 9 1 12 0;
#X connect 10 0 13 0;
#X connect 11 0 9 0;
#X connect 14 0 7 0;
#X connect 15 0 13 0;
#X connect 17 0 0 0;
#X connect 18 0 2 0;
#X connect 18 1 1 0;
#X connect 19 0 16 0;
#X connect 19 1 20 0;
#X connect 20 0 10 0;
#X restore 711 336 pd clip-event-handler;
#N canvas 1204 366 450 552 tempo-tap 0;
#X obj 10 10 r tap;
#X obj 10 54 timer;
#X obj 295 27 table tempos 8;
#X obj 10 76 t f f;
#X obj 37 99 < 2000;
#X obj 10 128 spigot;
#X obj 10 32 t b b b;
#X obj 49 54 delay 2000;
#X obj 10 153 list append;
#X obj 86 154 t l;
#X obj 33 197 list;
#X obj 49 76 t b b;
#X obj 60 345 list prepend 0;
#X obj 60 367 s tempos;
#X obj 87 263 list length;
#X msg 87 315 \; tempos resize \$1;
#X obj 33 405 array sum tempos;
#X obj 60 242 t a a;
#X obj 87 285 t f f;
#X obj 33 427 / 1;
#X obj 33 219 t b a;
#X obj 33 513 s bpm/r;
#X obj 33 449 expr 60000 / $f1;
#X obj 33 492 int;
#X obj 33 471 + 0.4999;
#X connect 0 0 6 0;
#X connect 1 0 3 0;
#X connect 3 0 5 0;
#X connect 3 1 4 0;
#X connect 4 0 5 1;
#X connect 5 0 8 0;
#X connect 6 0 1 0;
#X connect 6 1 1 1;
#X connect 6 2 7 0;
#X connect 7 0 11 0;
#X connect 8 0 9 0;
#X connect 8 0 10 0;
#X connect 9 0 8 1;
#X connect 10 0 20 0;
#X connect 11 0 10 1;
#X connect 11 1 8 1;
#X connect 12 0 13 0;
#X connect 14 0 18 0;
#X connect 16 0 19 0;
#X connect 17 0 12 0;
#X connect 17 1 14 0;
#X connect 18 0 15 0;
#X connect 18 1 19 1;
#X connect 19 0 22 0;
#X connect 20 0 16 0;
#X connect 20 1 17 0;
#X connect 22 0 24 0;
#X connect 23 0 21 0;
#X connect 24 0 23 0;
#X restore 212 158 pd tempo-tap;
#X obj 462 267 keys-input;
#X obj 462 308 arp;
#X msg 216 38 \; bpm/r 180 \; mic-on/r 1 \; fx-select/idx 0 \; clip-pos
pos -100 -100 \; snatch-pos pos -100 -100 \; arp-tune/r 0 \;;
#N canvas 47 215 450 300 network-sender 0;
#X obj 190 178 list prepend /goodnotes;
#X obj 190 200 list prepend send;
#X obj 190 232 netsend -u;
#X msg 17 81 connect 255.255.255.255 4444;
#X obj 17 6 loadbang;
#X msg 17 28 bang;
#X obj 17 50 metro 10000;
#X obj 190 109 r goodnotes;
#X obj 255 27 inlet;
#X obj 190 131 spigot 1;
#X connect 0 0 1 0;
#X connect 1 0 2 0;
#X connect 3 0 2 0;
#X connect 4 0 5 0;
#X connect 5 0 6 0;
#X connect 6 0 3 0;
#X connect 7 0 9 0;
#X connect 8 0 9 1;
#X connect 9 0 0 0;
#X restore 419 85 pd network-sender;
#N canvas 98 140 450 300 network-receiver 0;
#X obj 5 132 r #osc-in;
#X obj 24 226 s tick;
#X obj 77 226 s bpm/r;
#X obj 130 226 s goodnotes;
#X obj 24 203 route /tick /bpm /goodnotes;
#X obj 24 98 s tick;
#X obj 5 12 netreceive -u 4444;
#X obj 24 76 route /tick /bpm /goodnotes;
#X obj 77 98 s bpm/r;
#X obj 130 98 s goodnotes;
#X obj 5 34 t b a b;
#X obj 5 154 t b a b;
#X obj 8 271 outlet;
#X msg 44 55 0;
#X msg 5 55 1;
#X msg 44 175 0;
#X msg 5 176 1;
#X connect 0 0 11 0;
#X connect 4 0 1 0;
#X connect 4 1 2 0;
#X connect 4 2 3 0;
#X connect 6 0 10 0;
#X connect 7 0 5 0;
#X connect 7 1 8 0;
#X connect 7 2 9 0;
#X connect 10 0 14 0;
#X connect 10 1 7 0;
#X connect 10 2 13 0;
#X connect 11 0 16 0;
#X connect 11 1 4 0;
#X connect 11 2 15 0;
#X connect 13 0 12 0;
#X connect 14 0 12 0;
#X connect 15 0 12 0;
#X connect 16 0 12 0;
#X restore 419 60 pd network-receiver;
#X obj 223 536 s-tanh~;
#X obj 277 457 *~ 0.001;
#X obj 120 533 s-tanh~;
#X obj 222 513 hip~ 1;
#X obj 120 510 hip~ 1;
#X obj 40 128 s-tanh~;
#X connect 0 0 1 0;
#X connect 1 0 2 0;
#X connect 1 0 11 0;
#X connect 1 1 4 0;
#X connect 1 1 12 0;
#X connect 2 1 3 0;
#X connect 3 0 9 0;
#X connect 4 1 39 0;
#X connect 5 0 27 0;
#X connect 6 0 30 0;
#X connect 7 0 6 1;
#X connect 8 0 5 1;
#X connect 11 0 16 0;
#X connect 12 0 11 1;
#X connect 12 1 13 0;
#X connect 13 0 16 1;
#X connect 14 0 15 0;
#X connect 16 0 14 0;
#X connect 17 0 56 0;
#X connect 17 0 57 0;
#X connect 19 0 6 0;
#X connect 19 1 5 0;
#X connect 21 0 57 0;
#X connect 22 0 56 0;
#X connect 28 0 50 0;
#X connect 29 0 54 0;
#X connect 30 0 58 0;
#X connect 32 0 31 0;
#X connect 35 0 32 0;
#X connect 36 0 18 0;
#X connect 38 0 31 0;
#X connect 39 0 40 0;
#X connect 40 0 10 0;
#X connect 42 0 37 0;
#X connect 42 0 36 0;
#X connect 52 0 51 0;
#X connect 53 0 20 1;
#X connect 54 0 56 0;
#X connect 54 0 57 0;
#X connect 55 0 20 0;
#X connect 56 0 53 0;
#X connect 57 0 55 0;
#X connect 58 0 42 0;
#X restore 10 199 pd main;
#X obj 269 160 tgl 32 0 mic-on mic-on/r mic 8 -8 0 10 -262144 -1 -1
1 1;
#N canvas 116 108 450 300 crap 0;
#X obj 183 6 tgl 32 0 line-on empty empty 17 7 0 10 -262144 -1 -1 0
1;
#X obj 16 91 hsl 128 64 0 127 0 0 fx-2 empty empty -2 -8 0 10 -262144
-1 -1 0 1;
#X obj 16 11 hsl 128 64 0 127 0 0 fx-1 empty empty -2 -8 0 10 -262144
-1 -1 0 1;
#X obj 240 45 numberbox 64 32 octave/r octave -2 3 0;
#X obj 264 97 tgl 32 0 empty down down 0 -8 0 10 -262144 -1 -1 0 1
;
#X floatatom 195 108 8 0 0 2 magic magic-ms -;
#X restore 64 200 pd crap;
#X obj 195 160 numberbox 64 32 bpm/r bpm 30 300 180;
#X obj -100 -100 cnv 15 24 24 empty snatch-pos empty 20 12 0 14 -1
-66577 0;
#X obj 174 46 touch 128 32 snatch;
#X obj 7 5 touch 160 72 pad;
#X text 173 80 snatch 1;
#X obj -100 -100 cnv 15 24 24 empty clip-pos empty 20 12 0 14 -1 -66577
0;
#X obj 174 99 touch 128 32 clip;
#X text 173 133 clip 1;
#X obj 174 5 taplist 128 32 fx-select-r fx-select filter delay bitcrush
ringmod reverb;
#X obj 159 160 bng 32 250 50 0 tap empty empty 17 7 0 10 -262144 -1
-1;
#X obj 11 115 taplist 64 32 waveform-r waveform sqr saw;
#X obj 85 115 hsl 64 32 0 1 0 1 arp-volume empty empty -2 -8 0 10 -262144
-1 -1 3600 0;
#X obj 11 160 touch 64 32 arp-cutoff;
#X obj 85 160 hsl 64 32 -1 1 0 1 arp-tune arp-tune/r tune -2 -8 0 10
-262144 -1 -1 3150 0;
#X text 12 93 synth;
#X obj 82 80 taplist 64 32 arpfreq-r arpfreq 1 2 3 4;
