#N struct 1020template-marker float a float b;
#N canvas 838 51 321 190 10;
#N canvas 15 285 1501 618 main 1;
#X obj 1308 21 r pad;
#X obj 1308 43 unpack f f;
#X obj 1308 105 sel -1;
#X obj 1341 127 * 127;
#X obj 1365 105 sel -1;
#X obj 1398 127 * 127;
#X obj 120 85 *~ 0;
#X obj 40 84 *~ 0;
#X obj 61 60 r mic-on;
#X obj 141 61 r line-on;
#X obj 1341 148 s fx-1;
#X obj 1398 148 s fx-2;
#X obj 1266 109 ==;
#X obj 1391 72 t f f;
#X obj 1418 94 == -1;
#X obj 1266 161 == 0;
#X obj 1266 183 s down;
#X obj 1266 137 &&;
#X obj 120 488 catch~ mainout;
#X obj 40 152 s~ core;
#X obj 33 12 soundinput;
#X obj 120 559 soundoutput;
#X obj 30 461 catch~ mainout-l;
#X obj 229 461 catch~ mainout-r;
#N canvas 829 241 450 438 delay 0;
#X obj 48 175 s-delayunit~ d;
#X obj 47 348 *~ 0;
#X obj 236 148 s d/length;
#X obj 304 148 s d/feedback;
#X obj 304 105 r fx-2;
#X obj 236 105 r fx-1;
#X obj 68 285 == 1;
#X obj 68 263 r fx-select/idx;
#X obj 236 127 int;
#X text 79 17 delay;
#X obj 48 370 throw~ mainout;
#X obj 48 46 r~ core;
#X obj 69 66 r down;
#X obj 48 89 *~ 0;
#X obj 84 348 switch~;
#X obj 159 98 s d/ms;
#X obj 159 73 r magic-ms;
#X obj 68 307 t f f;
#X connect 0 0 1 0;
#X connect 1 0 10 0;
#X connect 4 0 3 0;
#X connect 5 0 8 0;
#X connect 6 0 17 0;
#X connect 7 0 6 0;
#X connect 11 0 13 0;
#X connect 12 0 13 1;
#X connect 13 0 0 0;
#X connect 16 0 15 0;
#X connect 17 0 14 0;
#X connect 17 1 1 1;
#X restore 257 303 pd delay;
#N canvas 114 121 450 573 filter 0;
#X obj 52 150 mtof;
#X obj 42 186 vcf~;
#X obj 120 142 * 5;
#X obj 43 207 *~;
#X obj 42 231 *~ 1;
#X obj 52 96 r fx-1;
#X obj 120 98 r fx-2;
#X obj 82 210 == 0;
#X obj 120 120 / 127;
#X obj 52 118 int;
#X obj 82 185 r fx-select/idx;
#X obj 179 236 tgl 15 0 empty empty empty 17 7 0 10 -262144 -1 -1 1
1;
#X text 65 29 filter;
#X obj 43 254 throw~ mainout;
#X obj 42 66 r~ core;
#X obj 85 232 switch~;
#X connect 0 0 1 1;
#X connect 1 0 3 0;
#X connect 2 0 1 2;
#X connect 2 0 3 1;
#X connect 3 0 4 0;
#X connect 4 0 13 0;
#X connect 5 0 9 0;
#X connect 6 0 8 0;
#X connect 7 0 4 1;
#X connect 7 0 11 0;
#X connect 7 0 15 0;
#X connect 8 0 2 0;
#X connect 9 0 0 0;
#X connect 10 0 7 0;
#X connect 14 0 1 0;
#X restore 50 306 pd filter;
#N canvas 720 95 747 697 catcher 0;
#X obj 251 26 r down;
#X obj 251 48 change;
#X obj 187 126 tabwrite~ snippet;
#X obj 74 519 *~ 0;
#X obj 95 444 r fx-select/idx;
#X obj 95 466 == 2;
#X obj 72 252 phasor~;
#X obj 73 314 tabread4~ snippet;
#X obj 72 290 *~;
#X obj 179 226 samplerate~;
#X msg 179 204 bang;
#X obj 179 182 loadbang;
#X obj 72 87 r fx-1;
#X obj 72 129 int;
#X obj 72 151 mtof;
#X obj 91 226 expr 1 / $f1;
#X obj 187 146 table snippet 8820;
#X obj 164 258 *;
#X text 17 104 catcher;
#X obj 401 140 r fx-2;
#X obj 211 258 phasor~;
#X obj 72 202 t f f f;
#X obj 74 541 throw~ mainout;
#X obj 201 6 r~ core;
#X obj 72 107 - 12;
#X obj 73 381 *~;
#X floatatom 375 257 5 0 0 0 - - -, f 5;
#X obj 211 287 expr~ max(0 \, (1 - $v1) * (1 - $v2) + $v2);
#X obj 401 162 * 5;
#X obj 401 192 - 550;
#X obj 401 221 / 85;
#X obj 114 518 switch~;
#X obj 94 401 r down;
#X obj 73 424 *~ 0;
#X obj 95 488 t f f;
#X obj 25 173 r magic-freq;
#X obj 213 332 *~ 1;
#X obj 233 308 r down;
#X obj 251 70 sel 1;
#X connect 0 0 1 0;
#X connect 1 0 38 0;
#X connect 3 0 22 0;
#X connect 4 0 5 0;
#X connect 5 0 34 0;
#X connect 6 0 8 0;
#X connect 7 0 25 0;
#X connect 8 0 7 0;
#X connect 9 0 17 1;
#X connect 10 0 9 0;
#X connect 11 0 10 0;
#X connect 12 0 24 0;
#X connect 13 0 14 0;
#X connect 15 0 17 0;
#X connect 17 0 8 1;
#X connect 19 0 28 0;
#X connect 20 0 27 0;
#X connect 21 0 6 0;
#X connect 21 1 15 0;
#X connect 21 2 20 0;
#X connect 23 0 2 0;
#X connect 24 0 13 0;
#X connect 25 0 33 0;
#X connect 27 0 36 0;
#X connect 28 0 29 0;
#X connect 29 0 30 0;
#X connect 30 0 26 0;
#X connect 30 0 27 1;
#X connect 32 0 33 1;
#X connect 33 0 3 0;
#X connect 34 0 31 0;
#X connect 34 1 3 1;
#X connect 35 0 21 0;
#X connect 36 0 25 1;
#X connect 37 0 36 1;
#X connect 38 0 2 0;
#X restore 475 305 pd catcher;
#N canvas 2 50 450 635 ringmod 0;
#X obj 64 214 *~;
#X obj 79 192 osc~;
#X obj 172 342 *~ 0;
#X obj 193 297 r fx-select/idx;
#X obj 234 341 tgl 15 0 empty empty empty 17 7 0 10 -262144 -1 -1 0
1;
#X obj 193 319 == 3;
#X text 80 81 ringmod;
#X obj 173 404 throw~ mainout;
#X obj 63 101 r~ core;
#X obj 79 125 r fx-1;
#X obj 79 148 int;
#X obj 79 170 mtof;
#X obj 138 110 r fx-2;
#X obj 138 132 / 127;
#X obj 188 209 *~;
#X obj 187 96 r~ core;
#X obj 203 120 r fx-1;
#X obj 203 143 int;
#X obj 203 165 mtof;
#X obj 203 187 phasor~;
#X obj 138 154 t f f;
#X obj 202 239 expr 1 - $f1;
#X obj 187 263 *~;
#X obj 64 247 *~;
#X obj 216 372 switch~;
#X connect 0 0 23 0;
#X connect 1 0 0 1;
#X connect 2 0 7 0;
#X connect 3 0 5 0;
#X connect 5 0 2 1;
#X connect 5 0 4 0;
#X connect 5 0 24 0;
#X connect 8 0 0 0;
#X connect 9 0 10 0;
#X connect 10 0 11 0;
#X connect 11 0 1 0;
#X connect 12 0 13 0;
#X connect 13 0 20 0;
#X connect 14 0 22 0;
#X connect 15 0 14 0;
#X connect 16 0 17 0;
#X connect 17 0 18 0;
#X connect 18 0 19 0;
#X connect 19 0 14 1;
#X connect 20 0 23 1;
#X connect 20 1 21 0;
#X connect 21 0 22 1;
#X connect 22 0 2 0;
#X connect 23 0 2 0;
#X restore 770 309 pd ringmod;
#N canvas 280 50 576 854 reverb 0;
#X obj 156 125 r fx-1;
#X obj 81 477 *~ 0;
#X obj 128 359 r fx-select/idx;
#X obj 128 381 == 4;
#X obj 210 427 *~ 0;
#X text 102 90 reverb;
#X obj 121 477 switch~;
#X obj 80 120 r~ core;
#X obj 232 119 r fx-2;
#X obj 232 141 int;
#X obj 232 163 mtof;
#X msg 156 147 hall \$1;
#X msg 232 185 freq \$1;
#X obj 81 291 e_reverb rev1;
#X obj 169 250 r \$0-CTL;
#X obj 319 144 s \$0-GUI;
#X obj 319 102 loadbang;
#X obj 156 318 *~ 4;
#X obj 81 313 *~ 4;
#X msg 319 123 dry 0 \, amp 80 \, hall 80 \, freq 6000 \, damp 50;
#X obj 80 141 *~ 0.1;
#X obj 128 403 t f f f;
#X obj 210 448 throw~ mainout-r;
#X obj 82 525 throw~ mainout-l;
#X connect 0 0 11 0;
#X connect 1 0 23 0;
#X connect 2 0 3 0;
#X connect 3 0 21 0;
#X connect 4 0 22 0;
#X connect 7 0 20 0;
#X connect 8 0 9 0;
#X connect 9 0 10 0;
#X connect 10 0 12 0;
#X connect 11 0 13 1;
#X connect 12 0 13 1;
#X connect 13 0 18 0;
#X connect 13 1 17 0;
#X connect 14 0 13 1;
#X connect 16 0 19 0;
#X connect 17 0 4 0;
#X connect 18 0 1 0;
#X connect 19 0 15 0;
#X connect 20 0 13 0;
#X connect 21 0 6 0;
#X connect 21 1 1 1;
#X connect 21 2 4 1;
#X restore 1080 308 pd reverb;
#X obj 607 20 r #osc-in;
#X obj 607 64 s tick;
#X obj 120 107 *~ 0.5;
#X obj 660 64 s bpm/r;
#X obj 713 64 s goodnotes;
#X obj 607 41 route /tick /bpm /goodnotes;
#X obj 995 151 u_magic-freq;
#X obj 1017 49 r goodnotes;
#X obj 1017 71 list prepend notes;
#X obj 1017 93 list trim;
#X obj 892 87 list trim;
#X obj 892 43 r bpm/r;
#X obj 892 66 list prepend bpm;
#X obj 995 6 r fx-1;
#X obj 1085 173 s magic-ms;
#X obj 995 173 s magic-freq;
#X msg 1164 92 octave \$1;
#X obj 1164 70 r octave;
#X obj 995 28 int;
#X obj 266 8 loadbang;
#X msg 266 30 \; bpm/r 180 \;;
#X obj 276 485 noise~;
#X obj 276 507 *~ 0.01;
#X obj 1194 15 loadbang;
#X msg 1194 37 -3;
#X obj 396 63 s tick;
#X obj 396 19 netreceive -u 4444;
#X obj 396 41 route /tick /bpm /goodnotes;
#X obj 449 63 s bpm/r;
#X obj 502 63 s goodnotes;
#X connect 0 0 1 0;
#X connect 1 0 2 0;
#X connect 1 0 12 0;
#X connect 1 1 4 0;
#X connect 1 1 13 0;
#X connect 2 1 3 0;
#X connect 3 0 10 0;
#X connect 4 1 5 0;
#X connect 5 0 11 0;
#X connect 6 0 31 0;
#X connect 7 0 19 0;
#X connect 8 0 7 1;
#X connect 9 0 6 1;
#X connect 12 0 17 0;
#X connect 13 0 12 1;
#X connect 13 1 14 0;
#X connect 14 0 17 1;
#X connect 15 0 16 0;
#X connect 17 0 15 0;
#X connect 18 0 21 0;
#X connect 18 0 21 1;
#X connect 20 0 7 0;
#X connect 20 1 6 0;
#X connect 22 0 21 0;
#X connect 23 0 21 1;
#X connect 29 0 34 0;
#X connect 34 0 30 0;
#X connect 34 1 32 0;
#X connect 34 2 33 0;
#X connect 35 0 44 0;
#X connect 35 1 43 0;
#X connect 36 0 37 0;
#X connect 37 0 38 0;
#X connect 38 0 35 0;
#X connect 39 0 35 0;
#X connect 40 0 41 0;
#X connect 41 0 39 0;
#X connect 42 0 47 0;
#X connect 45 0 35 0;
#X connect 46 0 45 0;
#X connect 47 0 35 0;
#X connect 48 0 49 0;
#X connect 50 0 51 0;
#X connect 51 0 21 1;
#X connect 51 0 21 0;
#X connect 52 0 53 0;
#X connect 53 0 35 0;
#X connect 55 0 56 0;
#X connect 56 0 54 0;
#X connect 56 1 57 0;
#X connect 56 2 58 0;
#X restore 11 169 pd main;
#X obj 264 140 tgl 32 0 mic-on empty empty 17 7 0 10 -262144 -1 -1
0 1;
#X obj 174 6 taplist 128 32 fx-select-r fx-select filter delay catcher
ringmod reverb;
#N canvas 116 108 450 300 crap 0;
#X obj 183 6 tgl 32 0 line-on empty empty 17 7 0 10 -262144 -1 -1 0
1;
#X obj 16 91 hsl 128 64 0 127 0 0 fx-2 empty empty -2 -8 0 10 -262144
-1 -1 0 1;
#X obj 16 11 hsl 128 64 0 127 0 0 fx-1 empty empty -2 -8 0 10 -262144
-1 -1 0 1;
#X obj 240 45 numberbox 64 32 octave/r octave -2 3 0;
#X obj 264 97 tgl 32 0 empty down down 0 -8 0 10 -262144 -1 -1 0 1
;
#X floatatom 195 108 8 0 0 2 magic magic-ms -, f 8;
#X restore 63 169 pd crap;
#X obj 11 6 touch 160 160 pad;
#X obj 190 140 numberbox 64 32 bpm/r bpm 30 300 180;
#X obj 190 102 nbx 5 14 -1e+37 1e+37 0 0 empty tick tick 0 -8 0 10
-262144 -1 -1 0 256;
