#N canvas 913 453 450 481 10;
#X obj 61 10 notein;
#N canvas 0 50 450 250 (subpatch) 0;
#X array allnotes 128 float 3;
#A 0 0 0 0 0 0 0 0 0 0 0 0 0 0 0 0 0 0 0 0 0 0 0 0 0 0 0 0 0 0 0 0
0 0 0 0 0 0 0 0 0 0 0 0 0 0 0 0 0 0 0 0 0 0 0 0 0 0 0 0 0 0 0 0 0 0
0 0 0 0 0 0 0 0 0 0 0 0 0 0 0 0 0 0 0 0 0 0 0 0 0 0 0 0 0 0 0 0 0 0
0 0 0 0 0 0 0 0 0 0 0 0 0 0 0 0 0 0 0 0 0 0 0 0 0 0 0 0 0;
#X coords 0 1 128 0 128 20 1 0 0;
#X restore 309 30 graph;
#X obj 61 118 tabwrite allnotes;
#X obj 61 32 swap;
#X obj 61 84 clip 0 1;
#X obj 73 244 until 128;
#X obj 73 266 f;
#X msg 92 195 0;
#X obj 103 266 + 1;
#X obj 73 310 tabread allnotes;
#X obj 73 332 sel 1;
#X obj 73 288 t f f;
#X obj 73 354 f;
#X obj 73 376 list append;
#X obj 152 376 t l;
#X msg 73 221 128;
#X obj 14 428 list;
#X obj 34 59 t f f;
#X obj 20 173 sel 0;
#X msg 14 221 bang;
#X obj 90 428 list;
#X obj 73 173 t b b b b;
#X obj 34 151 t f b b;
#X obj 14 450 s goodnotes;
#X obj 90 450 s arpnotes;
#X connect 0 0 3 0;
#X connect 0 1 3 1;
#X connect 3 0 17 0;
#X connect 3 1 2 1;
#X connect 4 0 2 0;
#X connect 5 0 6 0;
#X connect 6 0 8 0;
#X connect 6 0 11 0;
#X connect 7 0 6 1;
#X connect 8 0 6 1;
#X connect 9 0 10 0;
#X connect 10 0 12 0;
#X connect 11 0 9 0;
#X connect 11 1 12 1;
#X connect 12 0 13 0;
#X connect 13 0 14 0;
#X connect 13 0 16 1;
#X connect 13 0 20 1;
#X connect 14 0 13 1;
#X connect 15 0 5 0;
#X connect 16 0 23 0;
#X connect 17 0 22 0;
#X connect 17 1 4 0;
#X connect 18 1 19 0;
#X connect 19 0 16 0;
#X connect 20 0 24 0;
#X connect 21 0 15 0;
#X connect 21 1 7 0;
#X connect 21 2 13 1;
#X connect 21 3 20 1;
#X connect 22 0 18 0;
#X connect 22 1 20 0;
#X connect 22 2 21 0;
