#N canvas 903 403 450 496 10;
#X obj 61 10 notein;
#N canvas 0 50 450 250 (subpatch) 0;
#X array allnotes 128 float 2;
#X coords 0 1 128 0 128 20 1 0 0;
#X restore 259 29 graph;
#X obj 61 127 tabwrite allnotes;
#X obj 61 32 swap;
#X obj 73 264 until 128;
#X obj 73 286 f;
#X msg 92 215 0;
#X obj 103 286 + 1;
#X obj 73 330 tabread allnotes;
#X obj 73 352 sel 1;
#X obj 73 308 t f f;
#X obj 73 394 f;
#X obj 73 416 list append;
#X obj 152 416 t l;
#X msg 73 241 128;
#X obj 14 448 list;
#X obj 34 59 t f f;
#X msg 14 241 bang;
#X obj 90 448 list;
#X obj 73 193 t b b b b;
#X obj 34 171 t f b b;
#X obj 14 470 s goodnotes;
#X obj 90 470 s arpnotes;
#X obj 61 103 > 0;
#X obj 69 79 sel 64;
#X msg 94 102 0;
#X obj 193 111 r tap;
#X msg 220 163 \; allnotes const 0;
#X obj 193 133 t b b;
#X obj 114 352 r arp-tune;
#X obj 88 374 + 1;
#X obj 14 193 sel 0 64;
#X connect 0 0 3 0;
#X connect 0 1 3 1;
#X connect 3 0 16 0;
#X connect 3 1 2 1;
#X connect 4 0 5 0;
#X connect 5 0 7 0;
#X connect 5 0 10 0;
#X connect 6 0 5 1;
#X connect 7 0 5 1;
#X connect 8 0 9 0;
#X connect 9 0 11 0;
#X connect 10 0 8 0;
#X connect 10 1 30 0;
#X connect 11 0 12 0;
#X connect 12 0 13 0;
#X connect 12 0 15 1;
#X connect 12 0 18 1;
#X connect 13 0 12 1;
#X connect 14 0 4 0;
#X connect 15 0 21 0;
#X connect 16 0 20 0;
#X connect 16 1 24 0;
#X connect 17 0 15 0;
#X connect 18 0 22 0;
#X connect 19 0 14 0;
#X connect 19 1 6 0;
#X connect 19 2 12 1;
#X connect 19 3 18 1;
#X connect 20 0 31 0;
#X connect 20 1 18 0;
#X connect 20 2 19 0;
#X connect 23 0 2 0;
#X connect 24 0 25 0;
#X connect 24 1 23 0;
#X connect 25 0 2 0;
#X connect 26 0 28 0;
#X connect 28 0 20 0;
#X connect 28 1 27 0;
#X connect 29 0 30 1;
#X connect 30 0 11 1;
#X connect 31 2 17 0;
